<svg xmlns="http://www.w3.org/2000/svg" width="1024" height="1024" viewBox="0 0 1024 1024">
<g>
<path d="M 344.03 760.01 C334.09,762.77 322.10,759.65 316.61,752.87 L 313.87 749.50 L 314.51 759.00 L 295.00 759.00 L 295.00 662.00 L 314.00 662.00 L 314.00 679.50 C314.00,689.12 314.17,697.00 314.38,697.00 C314.59,697.00 316.53,695.24 318.68,693.09 C328.60,683.16 347.61,684.19 357.55,695.18 C363.82,702.13 366.28,708.95 366.79,720.86 C367.33,733.47 365.52,741.28 360.40,748.30 C356.63,753.48 349.71,758.43 344.03,760.01 ZM 265.25 757.67 C260.57,759.96 258.07,760.47 250.56,760.69 C238.28,761.05 229.51,757.76 223.00,750.35 C209.84,735.35 211.24,707.76 225.82,694.93 C232.56,688.99 239.69,686.62 250.65,686.64 C258.53,686.66 260.56,687.04 265.31,689.36 C272.57,692.91 278.06,698.39 281.57,705.56 C285.55,713.69 286.19,726.72 283.11,736.86 C280.45,745.62 273.62,753.57 265.25,757.67 ZM 556.19 759.82 C544.01,763.47 528.85,758.65 524.74,749.81 C519.16,737.80 523.42,726.08 535.19,721.01 C539.12,719.32 560.42,715.21 566.21,715.02 C568.12,714.96 569.14,710.75 567.95,707.88 C565.92,702.97 562.49,701.00 556.00,701.00 C549.70,701.00 545.62,703.25 543.95,707.63 C543.11,709.85 542.54,710.00 535.08,710.00 C530.70,710.00 526.83,709.54 526.49,708.98 C525.24,706.96 529.05,698.36 532.77,694.79 C537.73,690.05 541.33,688.35 549.47,686.93 C561.86,684.77 574.44,688.18 580.80,695.43 C586.02,701.37 586.99,706.77 587.04,729.93 C587.07,741.24 587.46,752.43 587.92,754.79 L 588.74 759.07 L 579.62 758.79 C570.73,758.51 570.49,758.44 570.20,756.00 C569.58,750.80 569.14,750.71 564.56,754.74 C562.12,756.89 558.35,759.18 556.19,759.82 ZM 796.00 758.59 C791.41,760.95 775.31,761.57 769.29,759.60 C759.00,756.25 752.65,750.68 748.09,741.00 C745.76,736.06 745.50,734.33 745.53,724.00 C745.56,713.59 745.83,711.93 748.33,706.50 C755.09,691.85 769.79,684.19 785.79,686.98 C793.77,688.37 798.38,690.66 803.20,695.67 C809.46,702.16 813.97,714.75 813.99,725.75 L 814.00 729.00 L 789.00 729.00 C787.41,729.00 785.92,729.00 784.52,729.00 C769.68,728.98 764.97,728.98 764.15,730.76 C763.77,731.59 764.23,732.81 764.90,734.59 C765.04,734.96 765.18,735.34 765.33,735.75 C768.03,743.18 775.61,747.80 783.15,746.59 C788.24,745.78 790.64,744.25 793.14,740.25 L 795.16 737.00 L 804.15 737.00 C813.01,737.00 813.12,737.03 812.44,739.25 C810.17,746.59 803.07,754.95 796.00,758.59 ZM 695.00 747.08 L 695.00 759.00 L 676.00 759.00 L 676.00 662.00 L 695.00 662.00 L 695.00 688.00 C695.00,702.30 695.24,714.00 695.54,714.00 C696.15,714.00 699.57,710.57 712.28,697.22 L 721.07 688.00 L 732.03 688.00 C738.07,688.00 743.00,688.33 743.00,688.74 C743.00,689.14 736.88,695.60 729.40,703.10 L 715.80 716.72 L 717.40 719.61 C718.28,721.20 724.61,730.71 731.49,740.75 L 743.98 759.00 L 732.74 758.99 L 721.50 758.99 L 711.75 743.99 C706.38,735.75 701.59,729.00 701.09,729.00 C700.59,729.00 699.01,730.38 697.59,732.08 C695.12,735.01 695.00,735.71 695.00,747.08 ZM 446.00 679.00 L 446.00 759.00 L 426.00 759.00 L 426.00 679.05 L 397.50 678.50 L 397.50 662.50 L 435.75 662.24 L 474.00 661.98 L 474.00 679.00 ZM 183.48 759.35 C176.81,761.62 164.91,761.44 158.50,758.97 C147.86,754.87 142.36,747.67 141.31,736.46 L 140.71 730.00 L 150.36 730.00 C159.91,730.00 160.00,730.02 160.00,732.43 C160.00,741.26 169.49,746.78 177.01,742.33 C178.56,741.42 180.32,739.60 180.91,738.29 C181.63,736.71 182.00,723.39 182.00,698.95 L 182.00 662.00 L 202.00 662.00 L 202.00 699.46 C202.00,735.22 201.90,737.19 199.87,742.71 C197.17,750.04 190.28,757.04 183.48,759.35 ZM 647.50 758.16 C642.39,760.58 640.31,760.99 633.50,760.92 C621.90,760.81 614.98,758.14 607.95,751.09 C600.36,743.47 597.53,735.07 598.24,722.26 C599.00,708.35 602.92,699.74 611.40,693.36 C618.03,688.37 624.31,686.49 634.00,686.59 C644.02,686.71 650.32,689.02 656.37,694.80 C660.49,698.74 664.97,707.03 664.99,710.75 C665.00,712.91 664.66,713.00 656.19,713.00 L 647.38 713.00 L 645.64 709.05 C640.92,698.34 626.06,698.34 620.06,709.06 C618.20,712.39 617.52,715.32 617.21,721.46 C616.44,736.75 622.61,746.17 633.40,746.17 C639.01,746.17 643.25,743.40 646.04,737.92 L 648.04 734.00 L 665.22 734.00 L 664.53 737.72 C662.97,746.02 656.35,753.96 647.50,758.16 ZM 495.18 736.57 L 494.86 759.00 L 476.00 759.00 L 476.00 688.00 L 494.00 688.00 L 494.00 693.00 C494.00,695.75 494.34,697.98 494.75,697.96 C495.16,697.94 496.40,696.48 497.50,694.71 C500.16,690.44 507.24,687.03 514.06,686.73 L 519.50 686.50 L 519.50 704.11 L 512.27 704.34 C504.51,704.59 501.59,705.99 497.56,711.38 C495.65,713.94 495.48,715.75 495.18,736.57 ZM 844.20 736.57 L 843.89 759.00 L 825.00 759.00 L 825.00 688.00 L 842.90 688.00 L 843.20 693.75 L 843.50 699.50 L 845.25 696.30 C847.80,691.64 853.00,688.10 859.21,686.80 C867.61,685.04 868.00,685.43 868.00,695.72 L 868.00 704.50 L 861.07 704.50 C853.57,704.51 850.67,705.89 846.56,711.38 C844.65,713.94 844.48,715.74 844.20,736.57 ZM 323.41 744.11 C325.18,745.19 328.36,745.99 330.85,746.00 C341.19,746.01 347.04,739.14 347.78,726.12 C348.35,716.30 346.81,710.79 342.12,705.76 C338.92,702.33 337.63,701.67 333.33,701.26 C323.31,700.29 316.92,706.48 314.77,719.24 C312.89,730.43 316.09,739.64 323.41,744.11 ZM 245.72 745.77 C257.59,748.84 266.01,739.84 265.99,724.10 C265.99,714.66 264.45,710.18 259.52,705.25 C255.72,701.46 254.76,701.00 250.58,701.00 C239.75,701.00 233.00,709.58 233.00,723.34 C233.00,735.16 237.86,743.73 245.72,745.77 ZM 703.48 317.96 C704.79,320.50 704.99,325.13 704.77,347.73 L 704.50 374.50 L 704.00 347.42 C703.50,320.62 703.48,320.31 701.02,316.73 C699.65,314.74 696.89,312.18 694.88,311.05 C691.23,309.00 690.93,309.00 511.86,309.00 C332.80,309.01 332.49,309.01 329.14,311.06 C327.29,312.19 325.61,312.94 325.40,312.73 C325.19,312.52 326.93,311.26 329.26,309.93 L 333.50 307.50 L 509.79 307.22 C627.77,307.04 687.35,307.29 689.89,307.97 C694.89,309.32 701.54,314.20 703.48,317.96 ZM 543.92 744.08 C546.44,746.59 547.61,747.00 552.28,747.00 C561.77,747.00 569.00,740.01 569.00,730.85 C569.00,728.18 568.66,726.00 568.25,726.00 C565.29,726.01 546.32,730.29 545.07,731.23 C540.02,735.01 539.59,739.75 543.92,744.08 ZM 765.61 711.64 L 764.12 716.00 L 779.56 716.00 C789.30,716.00 795.00,715.63 795.00,714.99 C795.00,714.43 794.03,711.91 792.84,709.37 C789.83,702.98 786.03,700.79 778.75,701.26 C771.86,701.70 767.94,704.80 765.61,711.64 ZM 532.50 484.05 C529.64,485.21 493.74,485.22 494.46,484.07 C494.79,483.54 503.57,483.16 514.77,483.19 C525.88,483.22 533.63,483.59 532.50,484.05 Z" fill="rgb(17,19,20)"/>
<path d="M 689.77 593.48 C685.25,594.82 664.03,594.99 512.07,594.88 C417.16,594.82 338.60,594.56 337.50,594.31 C333.30,593.36 327.00,590.69 327.00,589.86 C327.00,589.39 326.26,589.00 325.37,589.00 C323.60,589.00 313.34,579.10 313.75,577.79 C313.89,577.36 313.59,577.00 313.10,577.00 C312.36,577.00 310.60,573.48 309.48,569.75 C309.35,569.34 309.13,568.66 308.97,568.25 C308.62,567.29 308.26,565.77 308.10,564.50 C308.03,563.95 307.97,525.25 307.96,478.50 C307.95,406.01 307.74,393.22 306.51,391.60 C305.71,390.56 305.30,389.32 305.59,388.85 C305.88,388.38 305.61,388.00 305.00,388.00 C304.39,388.00 304.16,387.55 304.50,387.00 C304.84,386.45 304.66,386.00 304.09,386.00 C303.53,386.00 303.32,385.33 303.64,384.50 C303.96,383.67 303.67,383.00 303.00,383.00 C302.30,383.00 302.04,382.33 302.40,381.41 C302.73,380.54 302.78,379.45 302.50,379.01 C301.77,377.82 301.53,321.14 302.25,320.41 C302.59,320.08 302.62,319.17 302.32,318.40 C302.03,317.63 302.23,317.00 302.77,317.00 C303.31,317.00 303.75,315.86 303.75,314.47 C303.75,313.07 304.48,311.13 305.38,310.14 C306.27,309.15 307.00,307.82 307.00,307.17 C307.00,306.53 307.45,306.00 308.00,306.00 C308.55,306.00 309.00,305.46 309.00,304.80 C309.00,303.16 314.07,298.00 315.69,298.00 C316.41,298.00 317.00,297.55 317.00,297.00 C317.00,296.45 317.67,296.00 318.50,296.00 C319.33,296.00 320.00,295.59 320.00,295.09 C320.00,294.60 322.14,293.37 324.75,292.37 C329.04,290.73 334.38,290.50 380.00,290.03 L 430.50 289.50 L 430.68 277.50 C430.88,263.92 431.42,259.40 433.09,257.39 C433.72,256.63 433.85,255.99 433.37,255.98 C432.89,255.98 433.07,255.61 433.77,255.16 C434.47,254.72 435.26,253.26 435.51,251.93 C435.77,250.59 436.66,249.00 437.49,248.39 C438.32,247.78 439.00,247.01 439.00,246.68 C439.00,245.59 447.80,237.00 448.91,237.00 C449.51,237.00 450.00,236.56 450.00,236.02 C450.00,235.48 451.12,234.76 452.50,234.41 C453.88,234.07 455.00,233.44 455.00,233.03 C455.00,232.61 457.36,231.53 460.25,230.62 C464.88,229.17 471.21,229.01 513.52,229.24 L 561.55 229.50 L 568.12 232.74 C574.34,235.80 581.27,241.56 585.33,247.03 C591.25,255.03 594.00,265.35 594.00,279.58 L 594.00 290.00 L 641.45 290.00 C687.33,290.00 699.00,290.64 699.00,293.14 C699.00,293.68 699.45,293.84 700.00,293.50 C700.55,293.16 701.00,293.43 701.00,294.11 C701.00,294.78 701.30,295.03 701.67,294.66 C702.50,293.83 707.04,296.70 708.81,299.17 C709.53,300.18 710.58,301.00 711.15,301.00 C712.47,301.00 715.92,305.12 715.97,306.75 C715.99,307.44 716.39,308.00 716.88,308.00 C717.36,308.00 718.82,310.36 720.13,313.25 C722.46,318.42 722.50,319.00 722.48,349.50 C722.47,380.32 722.45,380.53 719.99,386.00 L 717.52 391.50 L 717.01 479.00 L 716.50 566.50 L 713.91 572.00 C711.03,578.14 702.97,587.56 699.71,588.59 C698.55,588.96 696.99,589.87 696.25,590.61 C695.51,591.35 692.60,592.64 689.77,593.48 ZM 338.75 576.31 C339.71,576.56 417.79,576.82 512.25,576.88 C637.22,576.97 684.00,576.70 684.00,575.89 C684.00,575.28 684.67,575.05 685.50,575.36 C686.33,575.68 687.00,575.50 687.00,574.97 C687.00,574.44 687.67,574.00 688.50,574.00 C689.33,574.00 690.00,573.55 690.00,573.00 C690.00,572.45 690.61,572.00 691.35,572.00 C693.05,572.00 696.22,568.56 695.34,567.67 C694.97,567.30 695.22,567.00 695.89,567.00 C696.57,567.00 696.86,566.59 696.55,566.09 C696.24,565.58 696.54,564.99 697.21,564.76 C698.10,564.47 698.35,561.09 698.14,552.18 C697.94,543.96 698.19,540.00 698.92,540.00 C699.51,540.00 700.00,538.88 700.00,537.50 C700.00,536.12 699.55,535.00 699.00,535.00 C698.34,535.00 698.00,513.52 698.00,472.56 L 698.00 410.11 L 692.75 412.51 C689.86,413.83 683.45,415.86 678.50,417.04 C673.55,418.21 667.25,419.80 664.50,420.56 C661.75,421.32 654.55,423.12 648.50,424.56 C642.45,425.99 635.31,427.80 632.64,428.58 C629.96,429.36 626.67,430.00 625.32,430.00 C623.97,430.00 622.11,430.40 621.18,430.89 C620.26,431.37 609.38,434.08 597.00,436.90 C584.62,439.72 573.15,442.42 571.50,442.90 C569.85,443.38 564.79,444.61 560.25,445.64 L 552.00 447.50 L 552.00 455.97 C552.00,466.10 550.17,471.61 545.09,476.76 C540.66,481.25 538.67,483.11 532.54,483.89 C531.76,483.51 524.58,483.21 514.77,483.19 C503.57,483.16 494.79,483.54 494.46,484.07 C494.40,484.16 494.57,484.24 494.94,484.32 C489.60,484.06 488.23,483.40 484.81,481.75 C479.79,479.32 477.73,477.71 477.45,476.00 C477.28,474.96 473.48,467.49 473.00,467.25 C472.73,467.12 472.64,462.84 472.81,457.74 L 473.13 448.47 L 468.81 447.35 C466.44,446.73 456.62,444.37 447.00,442.09 C437.38,439.82 427.92,437.54 426.00,437.04 C424.08,436.54 419.58,435.36 416.00,434.42 C408.32,432.40 396.61,429.56 385.50,427.01 C375.83,424.80 361.61,421.22 357.50,419.98 C355.85,419.48 351.12,418.32 347.00,417.41 C342.88,416.49 339.07,415.35 338.55,414.87 C338.03,414.39 336.80,414.00 335.83,414.00 C334.86,414.00 332.46,413.10 330.50,412.00 C328.54,410.90 326.73,410.00 326.47,410.00 C326.21,410.00 326.00,444.45 326.00,486.55 L 326.00 563.10 L 329.49 568.55 C332.63,573.47 333.88,574.49 336.25,574.12 C336.66,574.05 337.00,574.42 337.00,574.93 C337.00,575.44 337.79,576.06 338.75,576.31 ZM 703.48 317.96 C701.54,314.20 694.89,309.32 689.89,307.97 C687.35,307.29 627.77,307.04 509.79,307.22 L 333.50 307.50 L 329.26 309.93 C326.93,311.26 325.19,312.52 325.40,312.73 C325.61,312.94 327.29,312.19 329.14,311.06 C332.49,309.01 332.80,309.01 511.86,309.00 C690.93,309.00 691.23,309.00 694.88,311.05 C696.89,312.18 699.65,314.74 701.02,316.73 C701.56,317.52 701.99,318.16 702.33,318.96 C700.67,315.71 697.73,312.92 693.79,310.90 C690.18,309.05 685.11,309.00 512.29,309.02 C341.50,309.04 334.34,309.12 330.43,310.89 C328.19,311.91 324.93,314.48 323.18,316.60 L 320.00 320.46 L 320.00 346.98 C319.99,369.44 320.25,374.23 321.69,378.25 C322.63,380.86 323.77,383.00 324.22,383.00 C324.68,383.00 325.49,384.17 326.04,385.60 C326.58,387.02 327.92,388.43 329.01,388.71 C330.11,389.00 331.00,389.63 331.00,390.12 C331.00,390.60 331.67,391.00 332.50,391.00 C333.33,391.00 334.00,391.48 334.00,392.06 C334.00,392.64 334.45,392.84 335.00,392.50 C335.55,392.16 336.00,392.39 336.00,393.00 C336.00,393.61 336.45,393.84 337.00,393.50 C337.55,393.16 338.00,393.39 338.00,394.00 C338.00,394.61 338.45,394.84 339.00,394.50 C339.55,394.16 340.00,394.41 340.00,395.05 C340.00,395.69 340.67,395.95 341.50,395.64 C342.33,395.32 343.00,395.55 343.00,396.14 C343.00,396.73 343.65,396.97 344.44,396.66 C345.22,396.36 346.02,396.55 346.20,397.08 C346.37,397.62 347.86,398.16 349.51,398.28 C351.15,398.40 352.74,398.82 353.04,399.22 C353.34,399.61 355.14,400.06 357.04,400.22 C358.94,400.37 360.77,400.86 361.10,401.31 C361.42,401.76 363.45,402.21 365.60,402.31 C367.74,402.41 369.81,402.93 370.18,403.45 C370.56,403.97 372.47,404.40 374.43,404.40 C376.39,404.40 378.00,404.68 378.00,405.03 C378.00,405.93 388.01,408.11 389.09,407.44 C389.59,407.13 390.00,407.41 390.00,408.06 C390.00,408.73 390.83,409.02 391.95,408.72 C393.03,408.44 394.04,408.63 394.21,409.13 C394.38,409.64 396.13,410.20 398.11,410.37 C400.08,410.55 402.24,411.03 402.90,411.44 C403.56,411.84 404.73,411.93 405.52,411.63 C406.30,411.33 407.22,411.55 407.57,412.11 C407.92,412.68 408.80,412.91 409.54,412.62 C410.27,412.34 411.03,412.59 411.23,413.18 C411.42,413.77 413.48,414.30 415.79,414.36 C418.11,414.42 420.00,414.73 420.00,415.05 C420.00,415.99 434.84,419.22 435.97,418.52 C436.54,418.17 437.00,418.41 437.00,419.06 C437.00,419.73 437.83,420.02 438.95,419.72 C440.03,419.44 441.06,419.67 441.24,420.23 C441.43,420.79 443.48,421.30 445.79,421.36 C448.11,421.42 450.00,421.86 450.00,422.34 C450.00,422.82 450.75,422.93 451.67,422.57 C452.59,422.22 453.66,422.45 454.06,423.09 C454.45,423.73 456.62,424.30 458.89,424.36 C461.15,424.42 463.00,424.78 463.00,425.16 C463.00,425.55 464.01,426.06 465.25,426.29 C466.49,426.53 467.73,426.78 468.00,426.85 C468.27,426.92 469.55,426.69 470.84,426.35 C473.11,425.74 473.18,425.44 472.84,416.86 C472.65,411.99 472.89,408.00 473.36,408.00 C473.83,408.00 473.97,407.35 473.66,406.56 C473.36,405.78 473.50,404.99 473.98,404.81 C474.46,404.64 475.00,403.86 475.17,403.08 C475.35,402.30 476.20,400.93 477.06,400.02 C477.92,399.12 479.27,397.51 480.06,396.44 C481.63,394.33 486.05,392.38 492.81,390.81 C495.21,390.25 505.19,389.98 515.31,390.20 C529.47,390.50 534.33,390.95 537.27,392.25 C539.34,393.16 541.27,393.92 541.55,393.93 C542.85,393.97 550.00,403.33 550.00,405.00 C550.00,406.04 550.45,407.16 551.00,407.50 C551.55,407.84 552.00,412.09 552.00,416.94 C552.00,424.87 552.20,425.82 553.96,426.28 C555.99,426.81 568.11,424.18 569.00,423.02 C569.28,422.66 571.25,422.32 573.38,422.28 C575.52,422.23 577.54,421.81 577.88,421.35 C578.22,420.88 580.28,420.38 582.45,420.23 C584.62,420.09 586.65,419.56 586.96,419.06 C587.28,418.55 588.20,418.22 589.01,418.31 C591.79,418.63 604.00,415.78 604.00,414.82 C604.00,414.29 604.90,414.15 606.00,414.50 C607.10,414.85 608.00,414.71 608.00,414.19 C608.00,413.66 609.87,413.21 612.15,413.18 C614.44,413.15 616.58,412.68 616.92,412.13 C617.25,411.59 618.20,411.21 619.01,411.30 C621.82,411.59 629.00,409.82 629.00,408.84 C629.00,408.31 629.90,408.15 631.00,408.50 C632.16,408.87 633.00,408.68 633.00,408.05 C633.00,407.39 633.98,407.21 635.50,407.59 C637.10,407.99 638.00,407.80 638.00,407.04 C638.00,406.32 638.77,406.11 640.00,406.50 C641.20,406.88 642.00,406.68 642.00,406.00 C642.00,405.32 642.80,405.12 644.00,405.50 C645.10,405.85 646.00,405.74 646.00,405.27 C646.00,404.79 647.63,404.35 649.63,404.29 C651.63,404.24 653.54,403.78 653.88,403.28 C654.22,402.77 656.25,402.32 658.38,402.28 C660.52,402.23 662.54,401.81 662.88,401.35 C663.22,400.88 665.04,400.40 666.92,400.28 C668.81,400.15 670.64,399.58 671.00,398.99 C671.36,398.41 672.41,398.22 673.33,398.57 C674.31,398.95 675.00,398.73 675.00,398.04 C675.00,397.32 675.78,397.11 677.00,397.50 C678.22,397.89 679.00,397.68 679.00,396.96 C679.00,396.31 679.64,396.03 680.42,396.33 C681.20,396.63 682.86,395.99 684.10,394.91 C685.35,393.83 687.41,392.68 688.68,392.36 C689.96,392.04 691.00,391.38 691.00,390.89 C691.00,390.40 691.52,390.00 692.15,390.00 C693.56,390.00 700.60,382.87 700.25,381.78 C700.11,381.35 700.48,381.00 701.06,381.00 C701.64,381.00 701.84,380.55 701.50,380.00 C701.16,379.45 701.39,379.00 702.00,379.00 C702.61,379.00 702.84,378.55 702.50,378.00 C702.16,377.45 702.33,377.00 702.88,377.00 C703.65,377.00 704.03,361.72 703.99,347.01 L 704.00 347.42 L 704.50 374.50 L 704.77 347.73 C704.99,325.13 704.79,320.50 703.48,317.96 ZM 453.25 280.25 L 452.71 290.00 L 569.86 290.00 L 570.18 280.25 C570.36,274.89 570.10,270.21 569.62,269.86 C569.14,269.51 569.05,268.72 569.43,268.11 C569.81,267.50 569.61,267.00 569.00,267.00 C568.39,267.00 568.13,266.60 568.43,266.11 C568.73,265.63 568.31,264.67 567.49,263.99 C566.67,263.31 565.97,262.25 565.93,261.63 C565.81,259.86 559.31,254.88 555.21,253.41 C549.55,251.39 474.32,251.42 469.47,253.45 C467.56,254.25 466.00,254.67 466.00,254.39 C466.00,254.12 464.01,255.76 461.57,258.04 C455.74,263.51 453.92,268.38 453.25,280.25 ZM 494.06 465.06 C494.85,465.56 503.19,465.98 512.60,465.98 C527.91,466.00 529.86,465.81 531.35,464.17 C532.26,463.16 532.70,462.04 532.34,461.67 C531.97,461.30 532.19,461.00 532.83,461.00 C533.69,461.00 534.00,454.62 534.00,437.00 C534.00,420.78 533.66,413.00 532.94,413.00 C532.36,413.00 532.16,412.55 532.50,412.00 C533.74,410.00 527.60,409.00 514.18,409.01 C499.53,409.02 492.71,409.72 493.58,411.13 C493.88,411.61 493.75,412.00 493.31,412.00 C492.86,412.00 492.53,423.74 492.56,438.08 C492.61,459.62 492.87,464.31 494.06,465.06 Z" fill="rgb(25,49,65)"/>
<path d="M 532.50 484.05 C532.63,484.00 532.64,483.94 532.54,483.89 C538.67,483.11 540.66,481.25 545.09,476.76 C550.17,471.61 552.00,466.10 552.00,455.97 L 552.00 447.50 L 560.25 445.64 C564.79,444.61 569.85,443.38 571.50,442.90 C573.15,442.42 584.62,439.72 597.00,436.90 C609.38,434.08 620.26,431.37 621.18,430.89 C622.11,430.40 623.97,430.00 625.32,430.00 C626.67,430.00 629.96,429.36 632.64,428.58 C635.31,427.80 642.45,425.99 648.50,424.56 C654.55,423.12 661.75,421.32 664.50,420.56 C667.25,419.80 673.55,418.21 678.50,417.04 C683.45,415.86 689.86,413.83 692.75,412.51 L 698.00 410.11 L 698.00 472.56 C698.00,513.52 698.34,535.00 699.00,535.00 C699.55,535.00 700.00,536.12 700.00,537.50 C700.00,538.88 699.51,540.00 698.92,540.00 C698.19,540.00 697.94,543.96 698.14,552.18 C698.35,561.09 698.10,564.47 697.21,564.76 C696.54,564.99 696.24,565.58 696.55,566.09 C696.86,566.59 696.57,567.00 695.89,567.00 C695.22,567.00 694.97,567.30 695.34,567.67 C696.22,568.56 693.05,572.00 691.35,572.00 C690.61,572.00 690.00,572.45 690.00,573.00 C690.00,573.55 689.33,574.00 688.50,574.00 C687.67,574.00 687.00,574.44 687.00,574.97 C687.00,575.50 686.33,575.68 685.50,575.36 C684.67,575.05 684.00,575.28 684.00,575.89 C684.00,576.70 637.22,576.97 512.25,576.88 C417.79,576.82 339.71,576.56 338.75,576.31 C337.79,576.06 337.00,575.44 337.00,574.93 C337.00,574.42 336.66,574.05 336.25,574.12 C333.88,574.49 332.63,573.47 329.49,568.55 L 326.00 563.10 L 326.00 486.55 C326.00,444.45 326.21,410.00 326.47,410.00 C326.73,410.00 328.54,410.90 330.50,412.00 C332.46,413.10 334.86,414.00 335.83,414.00 C336.80,414.00 338.03,414.39 338.55,414.87 C339.07,415.35 342.88,416.49 347.00,417.41 C351.12,418.32 355.85,419.48 357.50,419.98 C361.61,421.22 375.83,424.80 385.50,427.01 C396.61,429.56 408.32,432.40 416.00,434.42 C419.58,435.36 424.08,436.54 426.00,437.04 C427.92,437.54 437.38,439.82 447.00,442.09 C456.62,444.37 466.44,446.73 468.81,447.35 L 473.13 448.47 L 472.81 457.74 C472.64,462.84 472.73,467.12 473.00,467.25 C473.48,467.49 477.28,474.96 477.45,476.00 C477.73,477.71 479.79,479.32 484.81,481.75 C488.23,483.40 489.60,484.06 494.94,484.32 C499.19,485.21 529.87,485.12 532.50,484.05 ZM 693.79 310.90 C697.73,312.92 700.67,315.71 702.33,318.96 C703.50,321.74 703.61,326.51 703.99,347.01 C704.03,361.72 703.65,377.00 702.88,377.00 C702.33,377.00 702.16,377.45 702.50,378.00 C702.84,378.55 702.61,379.00 702.00,379.00 C701.39,379.00 701.16,379.45 701.50,380.00 C701.84,380.55 701.64,381.00 701.06,381.00 C700.48,381.00 700.11,381.35 700.25,381.78 C700.60,382.87 693.56,390.00 692.15,390.00 C691.52,390.00 691.00,390.40 691.00,390.89 C691.00,391.38 689.96,392.04 688.68,392.36 C687.41,392.68 685.35,393.83 684.10,394.91 C682.86,395.99 681.20,396.63 680.42,396.33 C679.64,396.03 679.00,396.31 679.00,396.96 C679.00,397.68 678.22,397.89 677.00,397.50 C675.78,397.11 675.00,397.32 675.00,398.04 C675.00,398.73 674.31,398.95 673.33,398.57 C672.41,398.22 671.36,398.41 671.00,398.99 C670.64,399.58 668.81,400.15 666.92,400.28 C665.04,400.40 663.22,400.88 662.88,401.35 C662.54,401.81 660.52,402.23 658.38,402.28 C656.25,402.32 654.22,402.77 653.88,403.28 C653.54,403.78 651.63,404.24 649.63,404.29 C647.63,404.35 646.00,404.79 646.00,405.27 C646.00,405.74 645.10,405.85 644.00,405.50 C642.80,405.12 642.00,405.32 642.00,406.00 C642.00,406.68 641.20,406.88 640.00,406.50 C638.77,406.11 638.00,406.32 638.00,407.04 C638.00,407.80 637.10,407.99 635.50,407.59 C633.98,407.21 633.00,407.39 633.00,408.05 C633.00,408.68 632.16,408.87 631.00,408.50 C629.90,408.15 629.00,408.31 629.00,408.84 C629.00,409.82 621.82,411.59 619.01,411.30 C618.20,411.21 617.25,411.59 616.92,412.13 C616.58,412.68 614.44,413.15 612.15,413.18 C609.87,413.21 608.00,413.66 608.00,414.19 C608.00,414.71 607.10,414.85 606.00,414.50 C604.90,414.15 604.00,414.29 604.00,414.82 C604.00,415.78 591.79,418.63 589.01,418.31 C588.20,418.22 587.28,418.55 586.96,419.06 C586.65,419.56 584.62,420.09 582.45,420.23 C580.28,420.38 578.22,420.88 577.88,421.35 C577.54,421.81 575.52,422.23 573.38,422.28 C571.25,422.32 569.28,422.66 569.00,423.02 C568.11,424.18 555.99,426.81 553.96,426.28 C552.20,425.82 552.00,424.87 552.00,416.94 C552.00,412.09 551.55,407.84 551.00,407.50 C550.45,407.16 550.00,406.04 550.00,405.00 C550.00,403.33 542.85,393.97 541.55,393.93 C541.27,393.92 539.34,393.16 537.27,392.25 C534.33,390.95 529.47,390.50 515.31,390.20 C505.19,389.98 495.21,390.25 492.81,390.81 C486.05,392.38 481.63,394.33 480.06,396.44 C479.27,397.51 477.92,399.12 477.06,400.02 C476.20,400.93 475.35,402.30 475.17,403.08 C475.00,403.86 474.46,404.64 473.98,404.81 C473.50,404.99 473.36,405.78 473.66,406.56 C473.97,407.35 473.83,408.00 473.36,408.00 C472.89,408.00 472.65,411.99 472.84,416.86 C473.18,425.44 473.11,425.74 470.84,426.35 C469.55,426.69 468.27,426.92 468.00,426.85 C467.73,426.78 466.49,426.53 465.25,426.29 C464.01,426.06 463.00,425.55 463.00,425.16 C463.00,424.78 461.15,424.42 458.89,424.36 C456.62,424.30 454.45,423.73 454.06,423.09 C453.66,422.45 452.59,422.22 451.67,422.57 C450.75,422.93 450.00,422.82 450.00,422.34 C450.00,421.86 448.11,421.42 445.79,421.36 C443.48,421.30 441.43,420.79 441.24,420.23 C441.06,419.67 440.03,419.44 438.95,419.72 C437.83,420.02 437.00,419.73 437.00,419.06 C437.00,418.41 436.54,418.17 435.97,418.52 C434.84,419.22 420.00,415.99 420.00,415.05 C420.00,414.73 418.11,414.42 415.79,414.36 C413.48,414.30 411.42,413.77 411.23,413.18 C411.03,412.59 410.27,412.34 409.54,412.62 C408.80,412.91 407.92,412.68 407.57,412.11 C407.22,411.55 406.30,411.33 405.52,411.63 C404.73,411.93 403.56,411.84 402.90,411.44 C402.24,411.03 400.08,410.55 398.11,410.37 C396.13,410.20 394.38,409.64 394.21,409.13 C394.04,408.63 393.03,408.44 391.95,408.72 C390.83,409.02 390.00,408.73 390.00,408.06 C390.00,407.41 389.59,407.13 389.09,407.44 C388.01,408.11 378.00,405.93 378.00,405.03 C378.00,404.68 376.39,404.40 374.43,404.40 C372.47,404.40 370.56,403.97 370.18,403.45 C369.81,402.93 367.74,402.41 365.60,402.31 C363.45,402.21 361.42,401.76 361.10,401.31 C360.77,400.86 358.94,400.37 357.04,400.22 C355.14,400.06 353.34,399.61 353.04,399.22 C352.74,398.82 351.15,398.40 349.51,398.28 C347.86,398.16 346.37,397.62 346.20,397.08 C346.02,396.55 345.22,396.36 344.44,396.66 C343.65,396.97 343.00,396.73 343.00,396.14 C343.00,395.55 342.33,395.32 341.50,395.64 C340.67,395.95 340.00,395.69 340.00,395.05 C340.00,394.41 339.55,394.16 339.00,394.50 C338.45,394.84 338.00,394.61 338.00,394.00 C338.00,393.39 337.55,393.16 337.00,393.50 C336.45,393.84 336.00,393.61 336.00,393.00 C336.00,392.39 335.55,392.16 335.00,392.50 C334.45,392.84 334.00,392.64 334.00,392.06 C334.00,391.48 333.33,391.00 332.50,391.00 C331.67,391.00 331.00,390.60 331.00,390.12 C331.00,389.63 330.11,389.00 329.01,388.71 C327.92,388.43 326.58,387.02 326.04,385.60 C325.49,384.17 324.68,383.00 324.22,383.00 C323.77,383.00 322.63,380.86 321.69,378.25 C320.25,374.23 319.99,369.44 320.00,346.98 L 320.00 320.46 L 323.18 316.60 C324.93,314.48 328.19,311.91 330.43,310.89 C334.34,309.12 341.50,309.04 512.29,309.02 C685.11,309.00 690.18,309.05 693.79,310.90 ZM 494.06 465.06 C492.87,464.31 492.61,459.62 492.56,438.08 C492.53,423.74 492.86,412.00 493.31,412.00 C493.75,412.00 493.88,411.61 493.58,411.13 C492.71,409.72 499.53,409.02 514.18,409.01 C527.60,409.00 533.74,410.00 532.50,412.00 C532.16,412.55 532.36,413.00 532.94,413.00 C533.66,413.00 534.00,420.78 534.00,437.00 C534.00,454.62 533.69,461.00 532.83,461.00 C532.19,461.00 531.97,461.30 532.34,461.67 C532.70,462.04 532.26,463.16 531.35,464.17 C529.86,465.81 527.91,466.00 512.60,465.98 C503.19,465.98 494.85,465.56 494.06,465.06 Z" fill="rgb(231,141,72)"/>
<path d="M 0.00 512.00 L 0.00 0.00 L 512.00 0.00 L 1024.00 0.00 L 1024.00 512.00 L 1024.00 1024.00 L 512.00 1024.00 L 0.00 1024.00 L 0.00 512.00 ZM 183.48 759.35 C190.28,757.04 197.17,750.04 199.87,742.71 C201.90,737.19 202.00,735.22 202.00,699.46 L 202.00 662.00 L 192.00 662.00 L 182.00 662.00 L 182.00 698.95 C182.00,723.39 181.63,736.71 180.91,738.29 C180.32,739.60 178.56,741.42 177.01,742.33 C169.49,746.78 160.00,741.26 160.00,732.43 C160.00,730.02 159.91,730.00 150.36,730.00 L 140.71 730.00 L 141.31 736.46 C142.36,747.67 147.86,754.87 158.50,758.97 C164.91,761.44 176.81,761.62 183.48,759.35 ZM 265.25 757.67 C273.62,753.57 280.45,745.62 283.11,736.86 C286.19,726.72 285.55,713.69 281.57,705.56 C278.06,698.39 272.57,692.91 265.31,689.36 C260.56,687.04 258.53,686.66 250.65,686.64 C239.69,686.62 232.56,688.99 225.82,694.93 C211.24,707.76 209.84,735.35 223.00,750.35 C229.51,757.76 238.28,761.05 250.56,760.69 C258.07,760.47 260.57,759.96 265.25,757.67 ZM 344.03 760.01 C349.71,758.43 356.63,753.48 360.40,748.30 C365.52,741.28 367.33,733.47 366.79,720.86 C366.28,708.95 363.82,702.13 357.55,695.18 C347.61,684.19 328.60,683.16 318.68,693.09 C316.53,695.24 314.59,697.00 314.38,697.00 C314.17,697.00 314.00,689.12 314.00,679.50 L 314.00 662.00 L 304.50 662.00 L 295.00 662.00 L 295.00 710.50 L 295.00 759.00 L 304.76 759.00 L 314.51 759.00 L 314.19 754.25 L 313.87 749.50 L 316.61 752.87 C322.10,759.65 334.09,762.77 344.03,760.01 ZM 556.19 759.82 C558.35,759.18 562.12,756.89 564.56,754.74 C569.14,750.71 569.58,750.80 570.20,756.00 C570.49,758.44 570.73,758.51 579.62,758.79 L 588.74 759.07 L 587.92 754.79 C587.46,752.43 587.07,741.24 587.04,729.93 C586.99,706.77 586.02,701.37 580.80,695.43 C574.44,688.18 561.86,684.77 549.47,686.93 C541.33,688.35 537.73,690.05 532.77,694.79 C529.05,698.36 525.24,706.96 526.49,708.98 C526.83,709.54 530.70,710.00 535.08,710.00 C542.54,710.00 543.11,709.85 543.95,707.63 C545.62,703.25 549.70,701.00 556.00,701.00 C562.49,701.00 565.92,702.97 567.95,707.88 C569.14,710.75 568.12,714.96 566.21,715.02 C560.42,715.21 539.12,719.32 535.19,721.01 C523.42,726.08 519.16,737.80 524.74,749.81 C528.85,758.65 544.01,763.47 556.19,759.82 ZM 647.50 758.16 C656.35,753.96 662.97,746.02 664.53,737.72 L 665.22 734.00 L 656.63 734.00 L 648.04 734.00 L 646.04 737.92 C643.25,743.40 639.01,746.17 633.40,746.17 C622.61,746.17 616.44,736.75 617.21,721.46 C617.52,715.32 618.20,712.39 620.06,709.06 C626.06,698.34 640.92,698.34 645.64,709.05 L 647.38 713.00 L 656.19 713.00 C664.66,713.00 665.00,712.91 664.99,710.75 C664.97,707.03 660.49,698.74 656.37,694.80 C650.32,689.02 644.02,686.71 634.00,686.59 C624.31,686.49 618.03,688.37 611.40,693.36 C602.92,699.74 599.00,708.35 598.24,722.26 C597.53,735.07 600.36,743.47 607.95,751.09 C614.98,758.14 621.90,760.81 633.50,760.92 C640.31,760.99 642.39,760.58 647.50,758.16 ZM 796.00 758.59 C803.07,754.95 810.17,746.59 812.44,739.25 C813.12,737.03 813.01,737.00 804.15,737.00 L 795.16 737.00 L 793.14 740.25 C790.64,744.25 788.24,745.78 783.15,746.59 C775.61,747.80 768.03,743.18 765.33,735.75 C762.73,728.57 761.21,729.00 789.00,729.00 L 814.00 729.00 L 813.99 725.75 C813.97,714.75 809.46,702.16 803.20,695.67 C798.38,690.66 793.77,688.37 785.79,686.98 C769.79,684.19 755.09,691.85 748.33,706.50 C745.83,711.93 745.56,713.59 745.53,724.00 C745.50,734.33 745.76,736.06 748.09,741.00 C752.65,750.68 759.00,756.25 769.29,759.60 C775.31,761.57 791.41,760.95 796.00,758.59 ZM 446.00 719.00 L 446.00 679.00 L 460.00 679.00 L 474.00 679.00 L 474.00 670.49 L 474.00 661.98 L 435.75 662.24 L 397.50 662.50 L 397.50 670.50 L 397.50 678.50 L 411.75 678.78 L 426.00 679.05 L 426.00 719.03 L 426.00 759.00 L 436.00 759.00 L 446.00 759.00 L 446.00 719.00 ZM 495.18 736.57 C495.48,715.75 495.65,713.94 497.56,711.38 C501.59,705.99 504.51,704.59 512.27,704.34 L 519.50 704.11 L 519.50 695.30 L 519.50 686.50 L 514.06 686.73 C507.24,687.03 500.16,690.44 497.50,694.71 C496.40,696.48 495.16,697.94 494.75,697.96 C494.34,697.98 494.00,695.75 494.00,693.00 L 494.00 688.00 L 485.00 688.00 L 476.00 688.00 L 476.00 723.50 L 476.00 759.00 L 485.43 759.00 L 494.86 759.00 L 495.18 736.57 ZM 695.00 747.08 C695.00,735.71 695.12,735.01 697.59,732.08 C699.01,730.38 700.59,729.00 701.09,729.00 C701.59,729.00 706.38,735.75 711.75,743.99 L 721.50 758.99 L 732.74 758.99 L 743.98 759.00 L 731.49 740.75 C724.61,730.71 718.28,721.20 717.40,719.61 L 715.80 716.72 L 729.40 703.10 C736.88,695.60 743.00,689.14 743.00,688.74 C743.00,688.33 738.07,688.00 732.03,688.00 L 721.07 688.00 L 712.28 697.22 C699.57,710.57 696.15,714.00 695.54,714.00 C695.24,714.00 695.00,702.30 695.00,688.00 L 695.00 662.00 L 685.50 662.00 L 676.00 662.00 L 676.00 710.50 L 676.00 759.00 L 685.50 759.00 L 695.00 759.00 L 695.00 747.08 ZM 844.20 736.57 C844.48,715.74 844.65,713.94 846.56,711.38 C850.67,705.89 853.57,704.51 861.07,704.50 L 868.00 704.50 L 868.00 695.72 C868.00,685.43 867.61,685.04 859.21,686.80 C853.00,688.10 847.80,691.64 845.25,696.30 L 843.50 699.50 L 843.20 693.75 L 842.90 688.00 L 833.95 688.00 L 825.00 688.00 L 825.00 723.50 L 825.00 759.00 L 834.45 759.00 L 843.89 759.00 L 844.20 736.57 ZM 689.77 593.48 C692.60,592.64 695.51,591.35 696.25,590.61 C696.99,589.87 698.55,588.96 699.71,588.59 C702.97,587.56 711.03,578.14 713.91,572.00 L 716.50 566.50 L 717.01 479.00 L 717.52 391.50 L 719.99 386.00 C722.45,380.53 722.47,380.32 722.48,349.50 C722.50,319.00 722.46,318.42 720.13,313.25 C718.82,310.36 717.36,308.00 716.88,308.00 C716.39,308.00 715.99,307.44 715.97,306.75 C715.92,305.12 712.47,301.00 711.15,301.00 C710.58,301.00 709.53,300.18 708.81,299.17 C707.04,296.70 702.50,293.83 701.67,294.66 C701.30,295.03 701.00,294.78 701.00,294.11 C701.00,293.43 700.55,293.16 700.00,293.50 C699.45,293.84 699.00,293.68 699.00,293.14 C699.00,290.64 687.33,290.00 641.45,290.00 L 594.00 290.00 L 594.00 279.58 C594.00,265.35 591.25,255.03 585.33,247.03 C581.27,241.56 574.34,235.80 568.12,232.74 L 561.55 229.50 L 513.52 229.24 C471.21,229.01 464.88,229.17 460.25,230.62 C457.36,231.53 455.00,232.61 455.00,233.03 C455.00,233.44 453.88,234.07 452.50,234.41 C451.12,234.76 450.00,235.48 450.00,236.02 C450.00,236.56 449.51,237.00 448.91,237.00 C447.80,237.00 439.00,245.59 439.00,246.68 C439.00,247.01 438.32,247.78 437.49,248.39 C436.66,249.00 435.77,250.59 435.51,251.93 C435.26,253.26 434.47,254.72 433.77,255.16 C433.07,255.61 432.89,255.98 433.37,255.98 C433.85,255.99 433.72,256.63 433.09,257.39 C431.42,259.40 430.88,263.92 430.68,277.50 L 430.50 289.50 L 380.00 290.03 C334.38,290.50 329.04,290.73 324.75,292.37 C322.14,293.37 320.00,294.60 320.00,295.09 C320.00,295.59 319.33,296.00 318.50,296.00 C317.67,296.00 317.00,296.45 317.00,297.00 C317.00,297.55 316.41,298.00 315.69,298.00 C314.07,298.00 309.00,303.16 309.00,304.80 C309.00,305.46 308.55,306.00 308.00,306.00 C307.45,306.00 307.00,306.53 307.00,307.17 C307.00,307.82 306.27,309.15 305.38,310.14 C304.48,311.13 303.75,313.07 303.75,314.47 C303.75,315.86 303.31,317.00 302.77,317.00 C302.23,317.00 302.03,317.63 302.32,318.40 C302.62,319.17 302.59,320.08 302.25,320.41 C301.53,321.14 301.77,377.82 302.50,379.01 C302.78,379.45 302.73,380.54 302.40,381.41 C302.04,382.33 302.30,383.00 303.00,383.00 C303.67,383.00 303.96,383.67 303.64,384.50 C303.32,385.33 303.53,386.00 304.09,386.00 C304.66,386.00 304.84,386.45 304.50,387.00 C304.16,387.55 304.39,388.00 305.00,388.00 C305.61,388.00 305.88,388.38 305.59,388.85 C305.30,389.32 305.71,390.56 306.51,391.60 C307.74,393.22 307.95,406.01 307.96,478.50 C307.97,525.25 308.03,563.95 308.10,564.50 C308.26,565.77 308.62,567.29 308.97,568.25 C309.13,568.66 309.35,569.34 309.48,569.75 C310.60,573.48 312.36,577.00 313.10,577.00 C313.59,577.00 313.89,577.36 313.75,577.79 C313.34,579.10 323.60,589.00 325.37,589.00 C326.26,589.00 327.00,589.39 327.00,589.86 C327.00,590.69 333.30,593.36 337.50,594.31 C338.60,594.56 417.16,594.82 512.07,594.88 C664.03,594.99 685.25,594.82 689.77,593.48 ZM 245.72 745.77 C237.86,743.73 233.00,735.16 233.00,723.34 C233.00,709.58 239.75,701.00 250.58,701.00 C254.76,701.00 255.72,701.46 259.52,705.25 C264.45,710.18 265.99,714.66 265.99,724.10 C266.01,739.84 257.59,748.84 245.72,745.77 ZM 323.41 744.11 C316.09,739.64 312.89,730.43 314.77,719.24 C316.92,706.48 323.31,700.29 333.33,701.26 C337.63,701.67 338.92,702.33 342.12,705.76 C346.81,710.79 348.35,716.30 347.78,726.12 C347.04,739.14 341.19,746.01 330.85,746.00 C328.36,745.99 325.18,745.19 323.41,744.11 ZM 543.92 744.08 C539.59,739.75 540.02,735.01 545.07,731.23 C546.32,730.29 565.29,726.01 568.25,726.00 C568.66,726.00 569.00,728.18 569.00,730.85 C569.00,740.01 561.77,747.00 552.28,747.00 C547.61,747.00 546.44,746.59 543.92,744.08 ZM 765.61 711.64 C767.94,704.80 771.86,701.70 778.75,701.26 C786.03,700.79 789.83,702.98 792.84,709.37 C794.03,711.91 795.00,714.43 795.00,714.99 C795.00,715.63 789.30,716.00 779.56,716.00 L 764.12 716.00 L 765.61 711.64 ZM 453.25 280.25 C453.92,268.38 455.74,263.51 461.57,258.04 C464.01,255.76 466.00,254.12 466.00,254.39 C466.00,254.67 467.56,254.25 469.47,253.45 C474.32,251.42 549.55,251.39 555.21,253.41 C559.31,254.88 565.81,259.86 565.93,261.63 C565.97,262.25 566.67,263.31 567.49,263.99 C568.31,264.67 568.73,265.63 568.43,266.11 C568.13,266.60 568.39,267.00 569.00,267.00 C569.61,267.00 569.81,267.50 569.43,268.11 C569.05,268.72 569.14,269.51 569.62,269.86 C570.10,270.21 570.36,274.89 570.18,280.25 L 569.86 290.00 L 511.29 290.00 L 452.71 290.00 L 453.25 280.25 Z" fill="rgb(254,254,254)"/>
</g>
</svg>